<?xml version="1.0" encoding="UTF-8" standalone="no"?>
<!DOCTYPE svg PUBLIC "-//W3C//DTD SVG 1.1//EN"
 "http://www.w3.org/Graphics/SVG/1.1/DTD/svg11.dtd">
<!-- Generated by graphviz version 11.0.0 (20240428.1522)
 -->
<!-- Pages: 1 -->
<svg width="782pt" height="259pt"
 viewBox="0.00 0.00 782.00 259.20" xmlns="http://www.w3.org/2000/svg" xmlns:xlink="http://www.w3.org/1999/xlink">
<g id="graph0" class="graph" transform="scale(1 1) rotate(0) translate(4 255.2)">
<polygon fill="white" stroke="none" points="-4,4 -4,-255.2 778,-255.2 778,4 -4,4"/>
<!-- 10 -->
<g id="10" class="node">
<title>10</title>
<polygon fill="none" stroke="black" points="477,-251.2 297,-251.2 297,-187.2 477,-187.2 477,-251.2"/>
<text text-anchor="start" x="337.5" y="-234.9" font-family="Bitstream Vera Sans Mono" font-weight="bold" font-size="14.00">BehaviorTree</text>
<text text-anchor="start" x="346.5" y="-220.9" font-family="Bitstream Vera Sans Mono" baseline-shift="sub" font-size="14.00">ID: MainTree</text>
<text text-anchor="start" x="312.75" y="-206.9" font-family="Bitstream Vera Sans Mono" baseline-shift="sub" font-size="14.00">category: NODECAT.ROOT</text>
<text text-anchor="start" x="353.25" y="-192.9" font-family="Bitstream Vera Sans Mono" baseline-shift="sub" font-size="14.00">root: True</text>
</g>
<!-- 100 -->
<g id="100" class="node">
<title>100</title>
<polygon fill="none" stroke="black" points="479.38,-151.2 294.62,-151.2 294.62,-93.6 479.38,-93.6 479.38,-151.2"/>
<text text-anchor="start" x="354" y="-131.1" font-family="Bitstream Vera Sans Mono" font-weight="bold" font-size="14.00">Sequence</text>
<text text-anchor="start" x="302.62" y="-117.1" font-family="Bitstream Vera Sans Mono" baseline-shift="sub" font-size="14.00">category: NODECAT.CONTROL</text>
<text text-anchor="start" x="322.88" y="-103.1" font-family="Bitstream Vera Sans Mono" baseline-shift="sub" font-size="14.00">name: root_sequence</text>
</g>
<!-- 10&#45;&gt;100 -->
<g id="edge1" class="edge">
<title>10&#45;&gt;100</title>
<path fill="none" stroke="black" d="M387,-186.9C387,-179.21 387,-170.89 387,-162.88"/>
<polygon fill="black" stroke="black" points="390.5,-162.99 387,-152.99 383.5,-162.99 390.5,-162.99"/>
</g>
<!-- 1000 -->
<g id="1000" class="node">
<title>1000</title>
<polygon fill="none" stroke="black" points="180,-57.6 0,-57.6 0,0 180,0 180,-57.6"/>
<text text-anchor="start" x="40.5" y="-37.5" font-family="Bitstream Vera Sans Mono" font-weight="bold" font-size="14.00">CheckBattery</text>
<text text-anchor="start" x="9" y="-23.5" font-family="Bitstream Vera Sans Mono" baseline-shift="sub" font-size="14.00">category: NODECAT.ACTION</text>
<text text-anchor="start" x="25.88" y="-9.5" font-family="Bitstream Vera Sans Mono" baseline-shift="sub" font-size="14.00">name: check_battery</text>
</g>
<!-- 100&#45;&gt;1000 -->
<g id="edge2" class="edge">
<title>100&#45;&gt;1000</title>
<path fill="none" stroke="black" d="M295.47,-93.17C262.48,-83 225.07,-71.46 191.29,-61.04"/>
<polygon fill="black" stroke="black" points="192.5,-57.75 181.91,-58.15 190.44,-64.44 192.5,-57.75"/>
</g>
<!-- 1001 -->
<g id="1001" class="node">
<title>1001</title>
<polygon fill="none" stroke="black" points="378,-57.6 198,-57.6 198,0 378,0 378,-57.6"/>
<text text-anchor="start" x="242.62" y="-37.5" font-family="Bitstream Vera Sans Mono" font-weight="bold" font-size="14.00">OpenGripper</text>
<text text-anchor="start" x="207" y="-23.5" font-family="Bitstream Vera Sans Mono" baseline-shift="sub" font-size="14.00">category: NODECAT.ACTION</text>
<text text-anchor="start" x="227.25" y="-9.5" font-family="Bitstream Vera Sans Mono" baseline-shift="sub" font-size="14.00">name: open_gripper</text>
</g>
<!-- 100&#45;&gt;1001 -->
<g id="edge3" class="edge">
<title>100&#45;&gt;1001</title>
<path fill="none" stroke="black" d="M356.49,-93.17C347.17,-84.55 336.8,-74.95 327,-65.89"/>
<polygon fill="black" stroke="black" points="329.41,-63.35 319.69,-59.12 324.65,-68.48 329.41,-63.35"/>
</g>
<!-- 1002 -->
<g id="1002" class="node">
<title>1002</title>
<polygon fill="none" stroke="black" points="576,-57.6 396,-57.6 396,0 576,0 576,-57.6"/>
<text text-anchor="start" x="428.25" y="-37.5" font-family="Bitstream Vera Sans Mono" font-weight="bold" font-size="14.00">ApproachObject</text>
<text text-anchor="start" x="405" y="-23.5" font-family="Bitstream Vera Sans Mono" baseline-shift="sub" font-size="14.00">category: NODECAT.ACTION</text>
<text text-anchor="start" x="415.12" y="-9.5" font-family="Bitstream Vera Sans Mono" baseline-shift="sub" font-size="14.00">name: approach_object</text>
</g>
<!-- 100&#45;&gt;1002 -->
<g id="edge4" class="edge">
<title>100&#45;&gt;1002</title>
<path fill="none" stroke="black" d="M417.51,-93.17C426.83,-84.55 437.2,-74.95 447,-65.89"/>
<polygon fill="black" stroke="black" points="449.35,-68.48 454.31,-59.12 444.59,-63.35 449.35,-68.48"/>
</g>
<!-- 1003 -->
<g id="1003" class="node">
<title>1003</title>
<polygon fill="none" stroke="black" points="774,-57.6 594,-57.6 594,0 774,0 774,-57.6"/>
<text text-anchor="start" x="634.5" y="-37.5" font-family="Bitstream Vera Sans Mono" font-weight="bold" font-size="14.00">CloseGripper</text>
<text text-anchor="start" x="603" y="-23.5" font-family="Bitstream Vera Sans Mono" baseline-shift="sub" font-size="14.00">category: NODECAT.ACTION</text>
<text text-anchor="start" x="619.88" y="-9.5" font-family="Bitstream Vera Sans Mono" baseline-shift="sub" font-size="14.00">name: close_gripper</text>
</g>
<!-- 100&#45;&gt;1003 -->
<g id="edge5" class="edge">
<title>100&#45;&gt;1003</title>
<path fill="none" stroke="black" d="M478.53,-93.17C511.52,-83 548.93,-71.46 582.71,-61.04"/>
<polygon fill="black" stroke="black" points="583.56,-64.44 592.09,-58.15 581.5,-57.75 583.56,-64.44"/>
</g>
</g>
</svg>
